<?xml version="1.0" encoding="UTF-8"?>
<svg version="1.1" xmlns="http://www.w3.org/2000/svg" width="967" height="146" viewBox="0 0 967 146" preserveAspectRatio="xMidYMid meet">
<path d="M0 0 C19.47 0 38.94 0 59 0 C62.63 3.63 66.26 7.26 70 11 C72.03969971 12.54844604 72.03969971 12.54844604 74.12060547 14.12817383 C76.72102394 16.30533941 77.49567544 17.81617064 77.96923828 21.1784668 C78.04189726 22.76741391 78.07349852 24.35861443 78.0703125 25.94921875 C78.08649628 26.80248245 78.10268005 27.65574615 78.11935425 28.53486633 C78.14157233 30.33585651 78.14553546 32.13715366 78.13232422 33.93823242 C78.12505539 36.66671027 78.21333984 39.3808405 78.30859375 42.10742188 C78.50467284 56.38633327 78.50467284 56.38633327 73.08175659 62.27046204 C70.28070022 64.90551723 67.44821225 67.27589388 64 69 C65.54050632 73.37667026 68.9653564 75.55062724 72.5625 78.1875 C73.7515813 79.07644955 74.94039716 79.96575431 76.12890625 80.85546875 C77.07636719 81.56316406 78.02382813 82.27085938 79 83 C83.04378015 87.04378015 81.02830778 103.08331833 81.09033203 108.69848633 C80.99115325 125.32422927 80.99115325 125.32422927 74.92578125 131.93115234 C72.41855077 134.07841616 69.91358251 136.02738076 67.05810547 137.69018555 C64.17999943 139.52186276 61.62080981 141.81599182 59 144 C39.53 144 20.06 144 0 144 C0 96.48 0 48.96 0 0 Z M34 28 C34 37.57 34 47.14 34 57 C37.96 57 41.92 57 46 57 C46 47.43 46 37.86 46 28 C42.04 28 38.08 28 34 28 Z M34 85 C34 95.23 34 105.46 34 116 C37.96 116 41.92 116 46 116 C46 105.77 46 95.54 46 85 C42.04 85 38.08 85 34 85 Z " fill="#FEE900" transform="translate(458,1)"/>
<path d="M0 0 C19.47 0 38.94 0 59 0 C62.63 3.63 66.26 7.26 70 11 C72.03969971 12.54844604 72.03969971 12.54844604 74.12060547 14.12817383 C76.72102394 16.30533941 77.49567544 17.81617064 77.96923828 21.1784668 C78.04189726 22.76741391 78.07349852 24.35861443 78.0703125 25.94921875 C78.08649628 26.80248245 78.10268005 27.65574615 78.11935425 28.53486633 C78.14157233 30.33585651 78.14553546 32.13715366 78.13232422 33.93823242 C78.12505539 36.66671027 78.21333984 39.3808405 78.30859375 42.10742188 C78.50467284 56.38633327 78.50467284 56.38633327 73.08175659 62.27046204 C70.28070022 64.90551723 67.44821225 67.27589388 64 69 C65.54050632 73.37667026 68.9653564 75.55062724 72.5625 78.1875 C73.7515813 79.07644955 74.94039716 79.96575431 76.12890625 80.85546875 C77.07636719 81.56316406 78.02382812 82.27085938 79 83 C83.04378015 87.04378015 81.02830778 103.08331833 81.09033203 108.69848633 C80.99115325 125.32422927 80.99115325 125.32422927 74.92578125 131.93115234 C72.41855077 134.07841616 69.91358251 136.02738076 67.05810547 137.69018555 C64.17999943 139.52186276 61.62080981 141.81599182 59 144 C39.53 144 20.06 144 0 144 C0 96.48 0 48.96 0 0 Z M34 28 C34 37.57 34 47.14 34 57 C37.96 57 41.92 57 46 57 C46 47.43 46 37.86 46 28 C42.04 28 38.08 28 34 28 Z M34 85 C34 95.23 34 105.46 34 116 C37.96 116 41.92 116 46 116 C46 105.77 46 95.54 46 85 C42.04 85 38.08 85 34 85 Z " fill="#FEE900" transform="translate(2,1)"/>
<path d="M0 0 C19.14 0 38.28 0 58 0 C62.29 4.29 66.58 8.58 71 13 C73.33964844 14.52560547 73.33964844 14.52560547 75.7265625 16.08203125 C79.21229566 19.07072128 79.61647024 22.1063596 80.0993042 26.47555542 C80.33950585 29.97397083 80.39087316 33.45276392 80.37255859 36.95874023 C80.37498464 39.67033362 80.49423274 42.36009892 80.62109375 45.06835938 C80.88457205 58.53352794 80.88457205 58.53352794 75.78613281 63.87353516 C73.32545526 66.09064391 70.74289653 68.02051795 68.01416016 69.89379883 C67.0194873 70.58884521 66.02481445 71.2838916 65 72 C65 72.66 65 73.32 65 74 C66.71951974 75.53851766 68.50187497 77.00731759 70.3125 78.4375 C72.2164226 79.94819414 74.11310425 81.46809188 76 83 C76.543647 83.42336136 77.08729401 83.84672272 77.64741516 84.28291321 C79.5913327 86.75068827 79.36084672 88.5498867 79.34057617 91.66479492 C79.34034958 92.82577194 79.34012299 93.98674896 79.33988953 95.1829071 C79.32440567 96.43610245 79.30892181 97.68929779 79.29296875 98.98046875 C79.28872391 100.26359451 79.28447906 101.54672028 79.28010559 102.86872864 C79.26866162 106.27686138 79.23919896 109.6846094 79.20599365 113.09259033 C79.17528273 116.57143862 79.16143368 120.05035103 79.14648438 123.52929688 C79.11592044 130.35320415 79.05720165 137.17605554 79 144 C68.11 144 57.22 144 46 144 C46 125.19 46 106.38 46 87 C41.71 87 37.42 87 33 87 C33 105.81 33 124.62 33 144 C22.11 144 11.22 144 0 144 C0 96.48 0 48.96 0 0 Z M33 28 C33 38.23 33 48.46 33 59 C37.29 59 41.58 59 46 59 C46 48.77 46 38.54 46 28 C41.71 28 37.42 28 33 28 Z " fill="#FEE900" transform="translate(887,1)"/>
<path d="M0 0 C11.22 0 22.44 0 34 0 C34.33 18.15 34.66 36.3 35 55 C36.35996094 51.11347656 37.71992188 47.22695313 39.12109375 43.22265625 C40.20465024 40.13123457 41.28878523 37.04001715 42.3733139 33.94893646 C43.51934323 30.68205853 44.66434131 27.41482739 45.80688477 24.14672852 C47.11678072 20.40008892 48.43130373 16.65508135 49.74609375 12.91015625 C50.15653427 11.73413345 50.56697479 10.55811066 50.98985291 9.34645081 C51.37017166 8.26540573 51.75049042 7.18436066 52.14233398 6.07055664 C52.47764633 5.11347305 52.81295868 4.15638947 53.15843201 3.17030334 C54 1 54 1 55 0 C57.59359322 -0.08851529 60.16039691 -0.11525945 62.75390625 -0.09765625 C63.52935287 -0.0962413 64.3047995 -0.09482635 65.10374451 -0.09336853 C67.59003494 -0.08775345 70.0762366 -0.07519846 72.5625 -0.0625 C74.24413933 -0.05748694 75.92578006 -0.0529237 77.60742188 -0.04882812 C81.73831566 -0.03777913 85.86914276 -0.02050445 90 0 C85.30428553 12.86411814 79.74182397 25.37160385 74.3125 37.9375 C72.4099531 42.34124412 70.51065139 46.74636715 68.61328125 51.15234375 C68.17993973 52.15240952 67.74659821 53.15247528 67.30012512 54.18284607 C66.51152753 56.01431316 65.73614576 57.85155654 64.97727966 59.69554138 C64 62 64 62 62.42919922 64.96289062 C61.67795498 70.27886237 64.34135258 74.67161205 66.51953125 79.44140625 C67.01152512 80.5595018 67.50351898 81.67759735 68.01042175 82.82957458 C69.59308825 86.41552805 71.20205202 89.98894943 72.8125 93.5625 C73.85531533 95.91000865 74.89634961 98.25830934 75.93554688 100.60742188 C77.97323974 105.20892712 80.01823326 109.80707171 82.06884766 114.40283203 C84.83569531 120.61648155 87.56719411 126.84449793 90.26171875 133.08984375 C90.64399124 133.96894913 91.02626373 134.8480545 91.42012024 135.75379944 C91.7631871 136.55297287 92.10625397 137.3521463 92.4597168 138.17553711 C92.75919724 138.87021591 93.05867767 139.56489471 93.36723328 140.28062439 C94 142 94 142 94 144 C81.79 144 69.58 144 57 144 C49.51313239 125.72037518 42.19112965 107.39808495 35 89 C34.67 107.15 34.34 125.3 34 144 C22.78 144 11.56 144 0 144 C0 96.48 0 48.96 0 0 Z " fill="#FEE900" transform="translate(358,1)"/>
<path d="M0 0 C11.22 0 22.44 0 34 0 C34 38.28 34 76.56 34 116 C38.62 116 43.24 116 48 116 C48 77.72 48 39.44 48 0 C59.22 0 70.44 0 82 0 C82.36243957 15.90865776 82.65661095 31.81399892 82.82899475 47.72559452 C82.91119601 55.11520656 83.0230544 62.50205565 83.20703125 69.88989258 C83.36748234 76.33614373 83.46995092 82.78039352 83.50541592 89.22858614 C83.52612588 92.63816646 83.57405099 96.04202698 83.69168091 99.44975471 C84.37806716 121.81673094 84.37806716 121.81673094 78.50732422 128.92843628 C75.23997764 132.24288062 71.70891839 135.02161439 67.87185192 137.64503765 C65.73570281 139.11100172 65.73570281 139.11100172 63.235672 141.82525635 C60.93472991 144.06349129 60.13207128 144.64365424 57.0144043 144.8215332 C55.89048782 144.89743431 55.89048782 144.89743431 54.74386597 144.97486877 C53.54614059 145.01244545 53.54614059 145.01244545 52.32421875 145.05078125 C51.06631027 145.10606239 51.06631027 145.10606239 49.7829895 145.16246033 C47.08350039 145.2550652 44.38846118 145.29271691 41.6875 145.3125 C40.77704926 145.32446411 39.86659851 145.33642822 38.92855835 145.34875488 C20.21631959 145.42760529 20.21631959 145.42760529 12.7199707 138.46166992 C10.37677598 135.74478767 8.24848167 133.00160543 6.40161133 129.92285156 C5.06397134 127.79788338 5.06397134 127.79788338 2.44787598 126.61962891 C-1.51353046 122.38027409 -0.65538749 117.75350611 -0.56762695 112.16308594 C-0.56835709 110.95305908 -0.56908722 109.74303223 -0.56983948 108.49633789 C-0.56695358 105.18201917 -0.54188975 101.86925952 -0.50696969 98.55521679 C-0.47570294 95.09058925 -0.47277524 91.6259407 -0.46684265 88.16119385 C-0.45130498 81.60208976 -0.41027811 75.04340259 -0.3600952 68.48448205 C-0.3041989 61.01663389 -0.27671461 53.54876577 -0.25161803 46.08076048 C-0.1993616 30.72022447 -0.10767159 15.36026271 0 0 Z " fill="#FEE900" transform="translate(553,1)"/>
<path d="M0 0 C0.79187714 -0.01568527 1.58375427 -0.03137054 2.39962769 -0.04753113 C4.07553998 -0.07213358 5.75164491 -0.08573471 7.42773438 -0.08911133 C9.96560917 -0.10529922 12.49501316 -0.19062245 15.03125 -0.27929688 C28.61941206 -0.51806542 28.61941206 -0.51806542 34.296875 4.5703125 C34.97412628 5.37276398 35.65137756 6.17521545 36.34915161 7.00198364 C38.77792711 9.80172633 38.77792711 9.80172633 41.87258911 11.80206299 C47.20897173 15.6502391 50.85117231 18.89508691 52.05929565 25.56999207 C52.74079697 31.64441551 52.75153508 37.72240476 52.7421875 43.828125 C52.77064874 46.09622653 52.80145262 48.36429974 52.83447266 50.63233948 C52.88812076 55.37964851 52.89460121 60.12429988 52.87109375 64.87182617 C52.85225451 69.70823275 52.90744144 74.53415424 53.03515625 79.36889648 C54.18607573 123.4373002 54.18607573 123.4373002 44.58106995 135.34693909 C37.23783229 142.48472979 28.70933135 146.91727012 18.36117554 147.13392639 C16.70942697 147.07855649 15.05842235 146.99227373 13.40991211 146.875 C10.89302223 146.70454816 8.41826754 146.7108679 5.89648438 146.73828125 C-2.84254938 146.60092399 -8.92437081 145.25795883 -15.32421875 139.08203125 C-16.76400618 137.5924303 -18.14519606 136.08161028 -19.48543835 134.50183201 C-21.12127274 132.64755657 -21.12127274 132.64755657 -23.13442039 130.99379635 C-27.00157302 127.61362194 -29.58601787 125.09636085 -30.15541077 119.85731506 C-30.20545439 118.03713166 -30.2124778 116.21542136 -30.18383789 114.39477539 C-30.19946274 113.39369247 -30.21508759 112.39260956 -30.23118591 111.3611908 C-30.2713108 108.07041438 -30.25310197 104.78308696 -30.23046875 101.4921875 C-30.23840413 99.19346775 -30.24856547 96.8947547 -30.260849 94.59605408 C-30.27712953 89.78504358 -30.2640678 84.97522073 -30.23071289 80.16430664 C-30.19074759 74.01219272 -30.22734645 67.8633271 -30.28649235 61.71146488 C-30.32299049 56.96619422 -30.31685477 52.22169284 -30.29821587 47.47634697 C-30.29473893 45.20902945 -30.30480184 42.94164771 -30.32890511 40.67445564 C-30.4830012 23.021674 -30.4830012 23.021674 -27.20309448 17.39889526 C-24.95928234 15.11768961 -22.81047117 13.43990607 -20.1328125 11.70703125 C-18.67981293 10.4539487 -17.23969302 9.18557058 -15.8203125 7.89453125 C-15.20542969 7.37246094 -14.59054688 6.85039063 -13.95703125 6.3125 C-12.05569151 4.73897964 -12.05569151 4.73897964 -10.52709961 2.65087891 C-7.20143556 -0.04912488 -4.11255462 0.04120813 0 0 Z M4.8671875 28.70703125 C4.8671875 57.74703125 4.8671875 86.78703125 4.8671875 116.70703125 C9.1571875 116.70703125 13.4471875 116.70703125 17.8671875 116.70703125 C17.8671875 87.66703125 17.8671875 58.62703125 17.8671875 28.70703125 C13.5771875 28.70703125 9.2871875 28.70703125 4.8671875 28.70703125 Z " fill="#FEE900" transform="translate(199.1328125,0.29296875)"/>
<path d="M0 0 C1.16391014 -0.04933685 1.16391014 -0.04933685 2.35133362 -0.09967041 C4.85342156 -0.18318647 7.35210901 -0.22080764 9.85546875 -0.2421875 C10.6996637 -0.25276184 11.54385864 -0.26333618 12.41363525 -0.27423096 C29.79176611 -0.3386606 29.79176611 -0.3386606 36.65893555 5.60595703 C38.86603719 7.99226123 40.83939258 10.43443133 42.65698242 13.12939453 C44.20105005 15.08280191 45.79737856 16.111939 47.8671875 17.4765625 C50.424529 19.56848744 50.98635959 20.57743146 51.59863281 23.88037109 C51.7325113 27.53750224 51.65245474 31.10109898 51.48046875 34.7578125 C51.33609375 39.0890625 51.19171875 43.4203125 51.04296875 47.8828125 C40.15296875 47.8828125 29.26296875 47.8828125 18.04296875 47.8828125 C18.04296875 41.6128125 18.04296875 35.3428125 18.04296875 28.8828125 C13.75296875 28.8828125 9.46296875 28.8828125 5.04296875 28.8828125 C5.04296875 38.1228125 5.04296875 47.3628125 5.04296875 56.8828125 C10.58078125 57.0065625 10.58078125 57.0065625 16.23046875 57.1328125 C25.50873224 57.66766537 31.52429715 59.04760844 37.84643555 66.01269531 C38.7465475 67.06074117 39.6221308 68.13022767 40.4753418 69.21679688 C42.0237218 71.00813804 42.0237218 71.00813804 44.32348633 72.28320312 C47.90955029 74.63228731 50.44785181 76.77966632 51.65188599 81.034729 C52.82067497 87.69167667 52.89809485 94.39051029 52.85546875 101.1328125 C52.85064987 102.68817719 52.85064987 102.68817719 52.84573364 104.27496338 C52.67767965 116.61547634 52.39334425 128.35033906 43.48046875 137.7578125 C32.41405643 147.68318298 17.11616635 146.97821387 3.09361267 146.42608643 C-4.10469174 145.96446919 -9.36155979 145.3322031 -14.39355469 139.70043945 C-14.90950195 139.10062256 -15.42544922 138.50080566 -15.95703125 137.8828125 C-17.14309003 136.99294768 -18.35158213 136.13208693 -19.58203125 135.3046875 C-24.59538199 131.50495157 -28.38655668 128.06144496 -29.53759766 121.64794922 C-30.09748529 113.60404901 -29.47681254 105.99939731 -28.95703125 97.8828125 C-17.73703125 97.8828125 -6.51703125 97.8828125 5.04296875 97.8828125 C5.04296875 104.1528125 5.04296875 110.4228125 5.04296875 116.8828125 C9.33296875 116.8828125 13.62296875 116.8828125 18.04296875 116.8828125 C18.04296875 107.3128125 18.04296875 97.7428125 18.04296875 87.8828125 C10.82428243 87.83510184 10.82428243 87.83510184 3.6171875 88.12109375 C-2.94502238 88.28981092 -6.66899964 86.81539731 -11.45117188 82.51538086 C-13.82852522 80.21750671 -16.13956843 77.86555629 -18.41796875 75.46972656 C-20.42932191 73.39583768 -22.57305066 71.50766557 -24.76953125 69.6328125 C-28.93496077 66.04468131 -28.93496077 66.04468131 -29.19168091 64.16184998 C-31.86242647 23.3865122 -31.86242647 23.3865122 -25.30859375 14.4765625 C-21.9403428 11.04182808 -18.23050431 8.32768384 -13.97167969 6.09155273 C-11.81892295 4.94810724 -11.81892295 4.94810724 -10.19750977 2.79370117 C-7.03930478 0.10008993 -3.98256577 0.12824905 0 0 Z " fill="#FEE900" transform="translate(676.95703125,0.1171875)"/>
<path d="M0 0 C0.78747116 -0.0477507 1.57494232 -0.0955014 2.38627625 -0.1446991 C4.93348546 -0.27106277 7.47777192 -0.35234843 10.02734375 -0.4140625 C10.88710815 -0.43685272 11.74687256 -0.45964294 12.63269043 -0.48312378 C23.50455663 -0.63407238 31.16827233 0.00115215 39.32592773 7.71435547 C42.291011 11.04579394 45.06922941 14.42708233 47.59667969 18.10327148 C48.84192379 20.08905119 48.84192379 20.08905119 50.96484375 20.9609375 C50.96484375 32.8409375 50.96484375 44.7209375 50.96484375 56.9609375 C40.07484375 56.9609375 29.18484375 56.9609375 17.96484375 56.9609375 C17.96484375 47.7209375 17.96484375 38.4809375 17.96484375 28.9609375 C13.34484375 28.9609375 8.72484375 28.9609375 3.96484375 28.9609375 C3.96484375 58.0009375 3.96484375 87.0409375 3.96484375 116.9609375 C8.58484375 116.9609375 13.20484375 116.9609375 17.96484375 116.9609375 C17.96484375 105.7409375 17.96484375 94.5209375 17.96484375 82.9609375 C28.85484375 82.9609375 39.74484375 82.9609375 50.96484375 82.9609375 C51.12600991 88.8166412 51.26517663 94.6645929 51.34936523 100.52075195 C51.38446781 102.51027557 51.43216373 104.49961989 51.49291992 106.48852539 C51.57829376 109.35608197 51.61763242 112.22124387 51.6484375 115.08984375 C51.6845665 115.97241348 51.7206955 116.85498322 51.75791931 117.76429749 C51.76106661 122.76660641 51.14280384 125.33988705 47.56103516 128.95263672 C46.38189828 129.97837181 45.18505292 130.98442031 43.96484375 131.9609375 C43.23136719 132.62222656 42.49789062 133.28351563 41.7421875 133.96484375 C40.83146484 134.73634766 40.83146484 134.73634766 39.90234375 135.5234375 C37.17744523 137.82769401 37.17744523 137.82769401 34.73733521 140.42073059 C31.9060307 143.6697864 30.43146873 144.85588287 26.09350586 145.83251953 C24.64453082 145.91194262 23.19327817 145.95561401 21.7421875 145.96875 C20.96025528 145.9887204 20.17832306 146.0086908 19.37269592 146.02926636 C17.72141526 146.05952965 16.06977057 146.07372095 14.41821289 146.07275391 C11.92799717 146.08580307 9.45415373 146.19441999 6.96679688 146.30859375 C-0.86171989 146.47239629 -6.66787778 146.09110726 -12.74473572 140.7918396 C-15.3072554 138.28683574 -17.66388467 135.64864159 -20.03515625 132.9609375 C-21.59461121 131.53847648 -23.17236191 130.13512379 -24.78515625 128.7734375 C-27.9890024 126.00709135 -27.9890024 126.00709135 -29.03515625 124.9609375 C-29.22125618 121.8249515 -29.34144464 118.70969993 -29.41845703 115.5703125 C-29.44591003 114.58310211 -29.47336304 113.59589172 -29.50164795 112.57876587 C-29.74259866 103.41385271 -29.88528889 94.24716608 -29.99809456 85.0798645 C-30.07530075 78.92502945 -30.18450705 72.77459962 -30.37255859 66.62207031 C-30.55368749 60.66817568 -30.64903497 54.71830978 -30.6870079 48.76184082 C-30.71565881 46.50336555 -30.77369798 44.24504484 -30.86313248 41.98815918 C-31.56352125 23.47341406 -31.56352125 23.47341406 -25.27581787 15.77441406 C-21.19826721 11.42063896 -16.77613479 7.57273036 -12.03515625 3.9609375 C-11.03250575 3.14070099 -11.03250575 3.14070099 -10.00959969 2.30389404 C-6.93473212 0.21246238 -3.61144899 0.21605344 0 0 Z " fill="#FEE900" transform="translate(294.03515625,0.0390625)"/>
<path d="M0 0 C20.46 0 40.92 0 62 0 C62 9.24 62 18.48 62 28 C52.76 28 43.52 28 34 28 C34 36.58 34 45.16 34 54 C41.92 54 49.84 54 58 54 C58 63.24 58 72.48 58 82 C50.08 82 42.16 82 34 82 C34 93.22 34 104.44 34 116 C43.57 116 53.14 116 63 116 C63 125.24 63 134.48 63 144 C42.21 144 21.42 144 0 144 C0 96.48 0 48.96 0 0 Z " fill="#FFEA00" transform="translate(813,1)"/>
<path d="M0 0 C23.43 0 46.86 0 71 0 C71 9.24 71 18.48 71 28 C65.06 28 59.12 28 53 28 C53 66.28 53 104.56 53 144 C41.78 144 30.56 144 19 144 C19 105.72 19 67.44 19 28 C12.73 28 6.46 28 0 28 C0 18.76 0 9.52 0 0 Z " fill="#FFEA00" transform="translate(734,1)"/>
<path d="M0 0 C11.22 0 22.44 0 34 0 C34 38.28 34 76.56 34 116 C43.9 116 53.8 116 64 116 C64 125.24 64 134.48 64 144 C42.88 144 21.76 144 0 144 C0 96.48 0 48.96 0 0 Z " fill="#FFEA00" transform="translate(98,1)"/>
</svg>
